<svg width="24" height="24" viewBox="0 0 24 24" fill="none" xmlns="http://www.w3.org/2000/svg">
<path d="M12 1.25C12.1989 1.25 12.3897 1.32902 12.5303 1.46967C12.671 1.61032 12.75 1.80109 12.75 2V2.251C13.681 2.25976 14.5754 2.61453 15.2593 3.24629C15.9432 3.87805 16.3676 4.74162 16.45 5.669C16.464 5.835 16.464 6.023 16.464 6.298V7.52C16.464 11.39 13.52 14.57 9.75 14.947V17C9.75 18.1272 10.1978 19.2082 10.9948 20.0052C11.7918 20.8022 12.8728 21.25 14 21.25H14.882C15.5462 21.2499 16.1955 21.0536 16.7485 20.6857C17.3015 20.3177 17.7334 19.7946 17.99 19.182C18.03 19.0873 18.0583 18.9783 18.075 18.855C17.3957 18.6342 16.8174 18.1783 16.4442 17.5694C16.0709 16.9604 15.927 16.2382 16.0385 15.5327C16.15 14.8272 16.5094 14.1845 17.0523 13.7203C17.5951 13.256 18.2857 13.0006 19 13C19.7462 12.9992 20.4659 13.2765 21.0186 13.7778C21.5714 14.2791 21.9174 14.9685 21.9893 15.7112C22.0611 16.4539 21.8536 17.1968 21.4071 17.7947C20.9607 18.3927 20.3075 18.8028 19.575 18.945C19.5481 19.2257 19.4804 19.5009 19.374 19.762C19.0031 20.6473 18.3788 21.4032 17.5796 21.9349C16.7804 22.4665 15.8419 22.7501 14.882 22.75H14C12.475 22.75 11.0125 22.1442 9.93414 21.0659C8.8558 19.9875 8.25 18.525 8.25 17V14.95C6.33322 14.7636 4.55449 13.8703 3.26042 12.444C1.96635 11.0178 1.24966 9.16082 1.25 7.235V6.298C1.25 6.023 1.25 5.835 1.265 5.67C1.34257 4.79302 1.72623 3.9713 2.34876 3.34876C2.9713 2.72623 3.79303 2.34257 4.67 2.265C4.86304 2.25199 5.05654 2.24698 5.25 2.25V2C5.25 1.80109 5.32902 1.61032 5.46967 1.46967C5.61032 1.32902 5.80109 1.25 6 1.25C6.19891 1.25 6.38968 1.32902 6.53033 1.46967C6.67098 1.61032 6.75 1.80109 6.75 2V4C6.75 4.19891 6.67098 4.38968 6.53033 4.53033C6.38968 4.67098 6.19891 4.75 6 4.75C5.80109 4.75 5.61032 4.67098 5.46967 4.53033C5.32902 4.38968 5.25 4.19891 5.25 4V3.75C4.987 3.75 4.884 3.751 4.802 3.759C4.27582 3.80554 3.78278 4.03574 3.40926 4.40926C3.03574 4.78278 2.80554 5.27581 2.759 5.802C2.751 5.892 2.75 6.008 2.75 6.337V7.235C2.75 8.8926 3.40848 10.4823 4.58058 11.6544C5.75269 12.8265 7.3424 13.485 9 13.485C9.7832 13.485 10.5587 13.3307 11.2823 13.031C12.0059 12.7313 12.6634 12.292 13.2172 11.7382C13.771 11.1844 14.2103 10.5269 14.51 9.80332C14.8097 9.07974 14.964 8.3042 14.964 7.521V6.337C14.964 6.008 14.964 5.892 14.956 5.802C14.9066 5.24809 14.6539 4.73208 14.2465 4.35353C13.8392 3.97497 13.306 3.76068 12.75 3.752V4C12.75 4.19891 12.671 4.38968 12.5303 4.53033C12.3897 4.67098 12.1989 4.75 12 4.75C11.8011 4.75 11.6103 4.67098 11.4697 4.53033C11.329 4.38968 11.25 4.19891 11.25 4V2C11.25 1.80109 11.329 1.61032 11.4697 1.46967C11.6103 1.32902 11.8011 1.25 12 1.25Z" fill="#1FC29D"/>
</svg>
